<svg xmlns="http://www.w3.org/2000/svg" width="32" height="32" viewBox="0 0 32 32" shape-rendering="crispEdges" data-pixel-art="true" data-alpha="true" data-landmark-icon="true">
  <path fill="#41243d" d="M7 30h18v2H7zm2-2h3v-6h2v-5h2v-5h2V7h3v5h2v5h2v5h2v6h3v2H9z"/>
  <path fill="#c75a3d" d="M11 28h3v-6h2v-5h2v-5h2v5h2v5h2v6h2v2H11z"/>
  <path fill="#f1d19d" d="M16 19h4v9h-4zm1-7h2v3h-2z"/>
  <path fill="#ffd166" d="M13 23h2v2h-2zm8 0h2v2h-2z"/>
  <path fill="#8cc9b3" d="M15 15h2v2h-2zm4 1h2v2h-2z"/>
</svg>
